# xmcd
#
# Track frame offsets:
# 150
# 17308
# 38795
# 61430
# 80299
# 98831
# 119629
# 137609
# 155164
# 174680
# 193904
# 212215
#
# Disc length: 3123 seconds
#
#
# Revision: 9
# Processed by: cddbd v1.5.2PL0 Copyright (c) Steve Scherf et al.
# Submitted via: FreeRIP 2.945 
#
DISCID=a70c310c
DTITLE=周杰伦 / 十一月的萧邦
DYEAR=2005
DGENRE=Pop
TTITLE0=夜曲
TTITLE1=蓝色风暴
TTITLE2=发如雪
TTITLE3=黑色毛衣
TTITLE4=四面楚歌
TTITLE5=枫
TTITLE6=浪漫手机
TTITLE7=逆鳞
TTITLE8=麦芽糖
TTITLE9=珊瑚海
TTITLE10=飘移
TTITLE11=一路向北
EXTD=correct one
EXTT0=
EXTT1=
EXTT2=
EXTT3=
EXTT4=
EXTT5=
EXTT6=
EXTT7=
EXTT8=
EXTT9=
EXTT10=
EXTT11=
PLAYORDER=
